<svg id="Layer_1" data-name="Layer 1" xmlns="http://www.w3.org/2000/svg" viewBox="0 0 1920 1920"><defs><style>.cls-1{fill:#1a1a1a;}.cls-2{fill:#fff;}</style></defs><title>Logo</title><path class="cls-1" d="M478.48,1333.9H452.59V1191h25.89Z"/><path class="cls-1" d="M626.6,1191v133.4q0,9.54-9.53,9.53H596.56q-7.45,0-10.77-7.87L545.6,1238.4q-7.26-15.53-8.49-21.33h-2.49a156,156,0,0,1,1.24,21.54v95.29H510.38V1200.49q0-9.52,9.74-9.52h20.09a10.37,10.37,0,0,1,6.53,1.86,15.79,15.79,0,0,1,4.25,6L589.93,1284q.62,1.45,4.35,9.73t5.59,12.85h2.49q-1-13.05-1-23.2V1191Z"/><path class="cls-1" d="M774.71,1191v133.4q0,9.54-9.53,9.53H744.67q-7.45,0-10.77-7.87l-40.19-87.63q-7.25-15.53-8.49-21.33h-2.48a157.56,157.56,0,0,1,1.24,21.54v95.29H658.5V1200.49q0-9.52,9.73-9.52h20.1a10.34,10.34,0,0,1,6.52,1.86,15.57,15.57,0,0,1,4.25,6L738.05,1284q.62,1.45,4.35,9.73t5.59,12.85h2.49q-1.05-13.05-1-23.2V1191Z"/><path class="cls-1" d="M860.47,1188.27q33.15,0,46.1,16t12.94,58.21q0,42.27-12.94,58.21t-46.1,16q-32.94,0-45.88-16t-13-58.21q0-42.26,13-58.21T860.47,1188.27Zm0,22.17q-18,0-24.75,11.08T829,1262.43q0,29.83,6.73,40.92t24.75,11.08q18.22,0,25-11.08t6.73-40.92q0-29.82-6.73-40.91T860.47,1210.44Z"/><path class="cls-1" d="M1055.61,1191l-40.39,135.68q-2.07,7.26-9.53,7.25H981.24a9.45,9.45,0,0,1-5.9-2,9.19,9.19,0,0,1-3.42-5.28L931.32,1191H958l29.21,107.3q.63,2.49,1.87,8t1.86,8h5.18q1.25-6.63,3.94-16l28.79-107.3Z"/><path class="cls-1" d="M1165,1313l1.24,19.68q-18.86,1.66-63,1.66-14.1,0-22.27-7.25t-8.39-19.89v-89.49q.2-12.63,8.39-19.89t22.27-7.25q44.12,0,63,1.66L1165,1212.1h-55.93q-5.6,0-8,2.69t-2.38,9.32v25.07h58.63v19.88H1098.7V1301c0,4.43.79,7.53,2.38,9.33s4.25,2.69,8,2.69Z"/><path class="cls-1" d="M1293.63,1251.46v82.44h-19.26l-2.28-14.08q-17.82,16.77-41.85,16.78-23.61,0-34.18-17.92t-10.56-56.87q0-42.25,13.67-57.9t48.89-15.64q23.82,0,41,4.77L1287,1212.3q-20.09-1.24-37.7-1.24-11.19,0-17.4,1.55a21.33,21.33,0,0,0-11,7.05q-4.77,5.49-6.53,15.74t-1.76,27.86q0,28.8,5.6,39.88t20.09,11.08q13.88,0,30-9.94v-52.82Z"/><path class="cls-1" d="M1347.7,1333.9h-25.9V1191h25.9Z"/><path class="cls-1" d="M1474.48,1311.53l2.27,19.47q-17.19,5.38-43.91,5.39-32.11,0-45.16-16.57t-13-57.39q0-40.8,13-57.38t45.16-16.57q23.82,0,41,4.56l-2.48,19.68q-18-1.46-38.53-1.45-17.82,0-24.34,10.87t-6.53,40.29q0,29.43,6.53,40.3t24.34,10.87Q1459.13,1313.6,1474.48,1311.53Z"/><path class="cls-2" d="M495.39,1467c0,4.3-3,7.54-7.17,7.54s-7.09-3.24-7.09-7.54a7.13,7.13,0,1,1,14.26,0Z"/><path class="cls-2" d="M525.25,1487.24v-52.78h8.9v52.78Z"/><path class="cls-2" d="M585.05,1487.24l-28.13-37.85v37.85H548v-52.78h8.75l28.28,37.93v-37.93h8.74v52.78Z"/><path class="cls-2" d="M644.77,1487.24l-28.13-37.85v37.85h-8.9v-52.78h8.75l28.28,37.93v-37.93h8.75v52.78Z"/><path class="cls-2" d="M719.05,1460.85c0,15.08-12.22,26.77-28,26.77s-28-11.69-28-26.77,12.22-26.62,28-26.62S719.05,1445.77,719.05,1460.85Zm-46.91,0a18.93,18.93,0,0,0,19,18.78,18.71,18.71,0,1,0-19-18.78Z"/><path class="cls-2" d="M742.12,1487.24l-21-52.78h9.58l16.29,42.9,16.44-42.9h9.27l-21.34,52.78Z"/><path class="cls-2" d="M783.6,1475.33l-5.06,11.91h-9.27l23.3-52.78h9.13l23.07,52.78h-9.5l-5-11.91ZM796.87,1444l-10,23.45h19.9Z"/><path class="cls-2" d="M845.89,1442.45v44.79H837v-44.79H820.32v-8h42.31v8Z"/><path class="cls-2" d="M879.14,1442.45v14.25h25.79v8H879.14v14.55h29.71v8H870.24v-52.78H908v8Z"/><path class="cls-2" d="M960.81,1487.24H952V1470l-19.69-35.51h9l15.08,25.71,14.78-25.71h9.05l-19.38,35.21Z"/><path class="cls-2" d="M1036.52,1460.85c0,15.08-12.22,26.77-28,26.77s-28-11.69-28-26.77,12.21-26.62,28-26.62S1036.52,1445.77,1036.52,1460.85Zm-46.9,0a18.93,18.93,0,0,0,19,18.78,18.71,18.71,0,1,0-19-18.78Z"/><path class="cls-2" d="M1090.89,1465.37c0,13.8-8.67,22.25-22.93,22.25s-23-8.45-23-22.25v-30.91h8.9v30.91c0,8.9,5.51,14.26,14.18,14.26s14-5.28,14-14.26v-30.91h8.9Z"/><path class="cls-2" d="M1127.46,1471.26c-.75.07-1.58.07-2.41.07h-12.52v15.91h-8.9v-52.78h21.42c13.5,0,21.26,6.56,21.26,18,0,8.44-3.92,14.4-10.93,17.12l11.84,17.64h-10.11Zm-2.41-7.92c8.14,0,12.82-3.47,12.82-10.63,0-6.94-4.68-10.26-12.82-10.26h-12.52v20.89Z"/><path class="cls-2" d="M1209.36,1479.17v8.07h-31.75v-52.78h8.9v44.71Z"/><path class="cls-2" d="M1269.46,1460.85c0,15.08-12.22,26.77-28,26.77s-28-11.69-28-26.77,12.22-26.62,28-26.62S1269.46,1445.77,1269.46,1460.85Zm-46.91,0a18.93,18.93,0,0,0,19,18.78,18.71,18.71,0,1,0-19-18.78Z"/><path class="cls-2" d="M1320.73,1461.3v19.46a35.79,35.79,0,0,1-20.51,6.86c-15.61,0-27.75-11.69-27.75-26.77s12.29-26.62,28.28-26.62a31.74,31.74,0,0,1,20.29,7.39l-5.06,6.56a22.92,22.92,0,0,0-15.23-6c-10.78,0-19.23,8.22-19.23,18.7s8.52,18.78,19.31,18.78A24.61,24.61,0,0,0,1313,1476V1461.3Z"/><path class="cls-2" d="M1333.33,1487.24v-52.78h8.9v52.78Z"/><path class="cls-2" d="M1399.54,1442.37l-5.21,6.49a20.59,20.59,0,0,0-14.7-6.71,18.59,18.59,0,1,0,0,37.17,21.81,21.81,0,0,0,14.7-6.25l5.28,5.88a30,30,0,0,1-20.43,8.67c-15.46,0-27.45-11.69-27.45-26.85,0-15,12.14-26.54,27.75-26.54A29.16,29.16,0,0,1,1399.54,1442.37Z"/><path class="cls-2" d="M1438.9,1467c0,4.3-3,7.54-7.16,7.54s-7.09-3.24-7.09-7.54a7.13,7.13,0,1,1,14.25,0Z"/><path class="cls-1" d="M1051.69,533.38l-6.81-2.46L870.61,705.19V870.61l73.26,73.25-74.54,74.55a247.74,247.74,0,0,1,0-461l30.12,30.12A22.25,22.25,0,1,0,921,570.68a22.56,22.56,0,0,0-5.43.69l-40.45-40.45-6.81,2.46C761.39,571.9,689.55,674.19,689.55,787.9s71.84,216,178.77,254.52l6.82,2.45L1049.4,870.61V705.19l-73.26-73.26,74.54-74.54a247.75,247.75,0,0,1,0,461l-30.13-30.13a22.38,22.38,0,1,0-16.13,16.14l40.45,40.45,6.81-2.45c106.93-38.53,178.78-140.81,178.78-254.52S1158.62,571.9,1051.69,533.38Zm-25.11,181.26V861.15L960,927.73l-66.57-66.58V714.64L960,648.07Z"/></svg>